<svg xmlns="http://www.w3.org/2000/svg" xmlns:xlink="http://www.w3.org/1999/xlink" fill="none" version="1.1" width="24" height="24" viewBox="0 0 24 24"><g><g><path d="M15.8899,4.33358C14.7343,3.75575,13.4342,3.32245,11.9896,3.32245C11.1229,3.32245,10.2561,3.46693,9.38949,3.75575L7.5116,1.01112C8.81166,0.288972,10.4006,0,11.9896,0C14.3008,0,16.4677,0.722297,18.201,1.87789C18.7788,1.73342,19.2123,1.58904,19.7901,1.58904C22.1013,1.58904,23.9792,3.46693,23.9792,5.77811C23.9792,8.08944,22.1013,9.9673,19.7901,9.9673C17.4788,9.9673,15.6009,8.08944,15.6009,5.77811C15.6009,5.34479,15.7454,4.76699,15.8899,4.33358ZM8.37827,5.63362C8.37827,3.32244,6.50038,1.44455,4.18919,1.44455C1.87789,1.44455,0,3.32244,0,5.63362C0,6.78933,0.433325,7.80046,1.15559,8.52272C1.01112,9.38949,0.866768,10.2561,0.866768,11.1229C0.866768,15.1676,3.03348,18.6345,6.06705,20.5124L6.9337,17.0455C5.20031,15.6009,4.18919,13.4342,4.18919,11.1229C4.18919,10.6896,4.18919,10.2561,4.33355,9.82282C6.50038,9.82282,8.37827,7.94493,8.37827,5.63362ZM19.7901,11.4119C19.6457,14.3009,18.0566,16.7566,15.6009,17.9123C14.8787,16.6122,13.4342,15.601,11.8452,15.601C9.5339,15.601,7.65601,17.4788,7.65601,19.7901C7.65601,22.1014,9.5339,23.9792,11.8452,23.9792C13.5786,23.9792,15.0232,22.9681,15.7454,21.379C20.079,19.7901,23.1126,15.7455,23.1126,10.9784L23.1126,10.2562C22.9681,10.4006,19.7901,11.4119,19.7901,11.4119Z" fill-rule="evenodd" fill="#408EFF" fill-opacity="1"/></g></g></svg>